ply
format ascii 1.0
comment Created by Hyunkil Hwang
element vertex 24
property double x
property double y
property double z
element face 22
property list uchar uint vertex_indices
end_header
0 0 0
3.6 0 0
3.6 0 -0.1
0 0 -0.1
0 0 -0.2
3.6 0 -0.2
3.6 0 -0.3
0 0 -0.3
0 0 -0.4
3.6 0 -0.4
3.6 0 -0.5
0 0 -0.5
0 0 -0.6
3.6 0 -0.6
3.6 0 -0.7
0 0 -0.7
0 0.024 -0.8
3.6 0.024 -0.8
3.6 0.05 -0.9
0 0.05 -0.9
0 0.1 -1
3.6 0.1 -1
3.6 0.32 -1.1
0 0.32 -1.1
3 0 1 2
3 2 3 0
3 3 2 5
3 5 4 3
3 4 5 6
3 6 7 4
3 7 6 9
3 7 8 9
3 8 9 10
3 10 11 8
3 11 10 13
3 13 12 11
3 12 13 14
3 14 15 12
3 15 14 17
3 17 16 15
3 16 17 18
3 18 19 16
3 19 18 21
3 21 20 19
3 20 21 22
3 22 23 20